<svg width="200" height="200" viewBox="0 0 200 200" fill="none" xmlns="http://www.w3.org/2000/svg">
<rect width="200" height="200" fill="#252525"/>
<path d="M144.664 96.4808C140.185 96.4808 136.67 95.7584 134.117 94.3137C131.613 92.8209 129.855 90.6779 128.844 87.8848C127.833 85.0435 127.327 81.5762 127.327 77.4829V37.1035H140.113V79.4333C140.113 80.6372 140.209 81.8411 140.402 83.045C140.594 84.2489 141.004 85.2362 141.63 86.0067C142.304 86.7772 143.315 87.1624 144.664 87.1624C146.06 87.1624 147.071 86.7772 147.697 86.0067C148.323 85.2362 148.709 84.2489 148.853 83.045C149.046 81.8411 149.142 80.6372 149.142 79.4333V37.1035H162V77.4829C162 81.5762 161.47 85.0435 160.411 87.8848C159.4 90.6779 157.642 92.8209 155.138 94.3137C152.634 95.7584 149.142 96.4808 144.664 96.4808Z" fill="#F4F4F4"/>
<path d="M82.0887 95.614L75.0097 37.1035H85.9894L89.4567 71.1985L93.8631 37.1757H102.459L107.082 70.9818L110.622 37.1035H121.457L114.45 95.614H103.181L98.1972 60.2909L93.5019 95.614H82.0887Z" fill="#F4F4F4"/>
<path d="M55.8188 96.4808C52.1589 96.4808 49.1009 95.8306 46.6449 94.5304C44.1889 93.2302 42.3349 91.2317 41.0828 88.5349C39.8308 85.79 39.1325 82.2504 38.988 77.9163L50.04 76.2549C50.0881 78.7591 50.3049 80.7817 50.6901 82.3227C51.1235 83.8637 51.7014 84.9713 52.4238 85.6455C53.1943 86.3197 54.1092 86.6568 55.1687 86.6568C56.5171 86.6568 57.3839 86.1993 57.7692 85.2843C58.2026 84.3693 58.4193 83.4062 58.4193 82.3949C58.4193 79.9871 57.8414 77.9645 56.6856 76.3271C55.5299 74.6417 53.9648 72.9562 51.9903 71.2707L46.9339 66.8643C44.7187 64.9862 42.8405 62.8673 41.2995 60.5076C39.8067 58.0998 39.0602 55.1382 39.0602 51.6227C39.0602 46.6626 40.529 42.8823 43.4666 40.2818C46.4042 37.6332 50.4012 36.3089 55.4576 36.3089C58.5878 36.3089 61.092 36.8386 62.9701 37.898C64.8964 38.9575 66.3411 40.354 67.3042 42.0877C68.3155 43.7732 68.9897 45.579 69.3268 47.5053C69.712 49.3834 69.9287 51.1893 69.9769 52.923L58.8527 54.2954C58.8045 52.5618 58.6841 51.0689 58.4915 49.8168C58.347 48.5166 58.0099 47.5294 57.4802 46.8552C56.9505 46.1328 56.1318 45.7717 55.0242 45.7717C53.8203 45.7717 52.9294 46.2773 52.3515 47.2886C51.8218 48.2999 51.5569 49.3112 51.5569 50.3225C51.5569 52.4895 52.0626 54.2713 53.0739 55.6679C54.1333 57.0163 55.5058 58.4369 57.1913 59.9298L62.031 64.1916C64.5833 66.3587 66.7263 68.8147 68.46 71.5596C70.2418 74.3046 71.1327 77.6996 71.1327 81.7448C71.1327 84.4897 70.5066 86.9939 69.2545 89.2572C68.0025 91.4725 66.2207 93.2302 63.9091 94.5304C61.6458 95.8306 58.949 96.4808 55.8188 96.4808Z" fill="#F4F4F4"/>
<path fill-rule="evenodd" clip-rule="evenodd" d="M126.073 116.363C134.565 122.726 136.324 134.814 130.004 143.362C124.626 150.635 120.099 155.015 112.008 161.62L100.23 171.235L88.2257 161.908C80.8592 156.184 76.5384 151.85 70.2211 143.824C63.6473 135.472 65.0437 123.335 73.3402 116.717C81.5 110.208 93.2952 111.461 99.936 119.45C106.408 111.657 117.878 110.221 126.073 116.363Z" fill="#F4F4F4"/>
<path d="M96.415 156.282V144.725H86.0131V137.862H96.415V126.594H104.216V137.862H114.69V144.725H104.216V156.282H96.415Z" fill="#252525"/>
</svg>
